<svg width="541.5" height="361.5" xmlns="http://www.w3.org/2000/svg">
    <g transform="translate(-1109.491 -2404.16)">
      <path style="display:inline;fill:#fb0929;fill-opacity:1;fill-rule:nonzero;stroke:#fff;stroke-width:5.03274;stroke-miterlimit:4;stroke-dasharray:none;stroke-opacity:1" d="m1163.11 2585.442 217.313 143.19 216.956-144.247-216.837-143.198zm0 0"/>
      <path d="M1124.658 2771.218h21.739v6.144q-6.617 0-5.908 7.089l7.089 96.407h.473l7.325-96.407q.236-3.545-1.654-5.199-1.89-1.89-4.962-1.89v-6.144h20.084v6.144q-5.67 0-5.907 7.089l-11.106 163.986h-8.27l-8.27-105.386h-.473l-5.434 105.386h-8.27l-13.942-163.986q-.709-7.09-5.907-7.09v-6.143h21.03v6.144q-5.671 0-4.962 7.089l8.27 96.407h.473l4.962-96.407q.472-7.09-6.38-7.09zm71.123 177.219h-22.684v-6.143q3.308 0 4.49-1.418 1.181-1.654 1.181-5.671V2784.45q0-4.017-1.181-5.435-1.182-1.654-4.49-1.654v-6.144h22.684v6.144q-3.308 0-4.49 1.654-1.18 1.418-1.18 5.435v150.754q0 4.017 1.18 5.67 1.182 1.419 4.49 1.419zm41.115 0h-35.444l22.92-163.986q1.182-7.09-3.78-7.09-6.38 0-8.98 9.453-2.599 9.215-2.599 18.667v27.41h-7.561v-61.673h34.971l-22.448 161.388q-1.181 7.089 3.781 7.089 6.38 0 8.98-9.216 2.598-9.452 2.598-18.903v-27.41h7.562zm23.156-177.219h6.617l17.958 163.987q.709 7.089 7.089 7.089v6.143h-23.866v-6.143q5.907 0 5.198-7.09l-2.835-26.464h-13.232l-2.127 26.465q-.473 4.017.709 5.67 1.418 1.419 4.962 1.419v6.143h-19.376v-6.143q5.198 0 5.907-7.09zm-2.599 131.142h12.051l-6.852-62.617h-.473zm44.187 32.845V2784.45q0-4.017-1.182-5.435-1.181-1.654-4.49-1.654v-6.144h16.541q24.338 0 24.338 42.533 0 34.262-11.814 42.532 10.16 7.09 10.16 24.811v54.11q0 5.436 2.6 5.436t2.599-5.435v-22.448h6.143v22.684q0 12.996-10.16 12.996-5.199 0-8.98-4.253-3.544-4.253-3.544-12.05v-59.547q0-4.016-2.6-8.27-2.362-4.253-6.851-4.253-1.418 0-1.418.945v74.196q0 4.017 1.181 5.67 1.182 1.419 4.49 1.419v6.143h-22.684v-6.143q3.308 0 4.49-1.418 1.18-1.654 1.18-5.671zm11.342-155.953v73.487q0 1.182 1.418 1.182 6.143 0 8.506-8.034 2.6-8.27 2.6-33.318 0-35.207-10.161-35.207-2.363 0-2.363 1.89zm41.114 155.953V2784.45q0-4.017-1.181-5.435-1.182-1.654-4.49-1.654v-6.144h19.376q6.38 0 9.688 3.78 3.544 3.545 6.616 12.052 6.38 17.958 6.38 65.453 0 62.144-6.38 80.103-2.835 7.561-6.616 11.814-3.544 4.017-9.688 4.017h-19.376v-6.143q3.308 0 4.49-1.418 1.181-1.654 1.181-5.671zm11.342-154.062v156.897q0 4.254 2.6 4.254 4.725 0 7.324-12.287 3.781-18.904 3.781-77.504 0-42.06-3.78-60.964 0-.472-.473-2.599-.236-2.363-.71-3.78-.472-1.655-1.18-3.545-.71-2.126-2.127-3.072-1.182-1.181-2.836-1.181-2.599 0-2.599 3.78z" transform="scale(1.10413 .9057)" aria-label="WIZARD" style="font-size:236.292px;line-height:1.25;font-family:&quot;Willow Std&quot;;-inkscape-font-specification:&quot;Willow Std, Normal&quot;;word-spacing:0;fill:#fce800;stroke:#fff"/>
      <circle style="fill:none;fill-opacity:1;stroke:#fff;stroke-width:1.408;stroke-miterlimit:4;stroke-dasharray:none;stroke-opacity:1;paint-order:fill markers stroke" cx="1537.469" cy="2508.247" r="7.879"/>
      <g style="font-size:15.0949px;font-family:&quot;Liberation Mono&quot;;-inkscape-font-specification:&quot;Liberation Mono, Normal&quot;;word-spacing:0;stroke-width:1.41514">
        <path d="m1540.024 2513.363-2.697-4.238h-1.755v4.238h-1.407v-9.943h3.552q.885 0 1.54.192.664.184 1.099.545.442.354.656.863.221.508.221 1.15 0 .456-.147.913-.14.45-.45.833-.31.376-.789.656t-1.15.39l2.949 4.401zm-.206-7.171q0-1.644-2.24-1.644h-2.006v3.464h2.064q.612 0 1.025-.147.42-.148.67-.391.258-.25.369-.582.118-.332.118-.7" style="fill:#fff" aria-label="R"/>
      </g>
    </g>
</svg>
